<?xml version="1.0" standalone="no"?>
<!DOCTYPE svg PUBLIC "-//W3C//DTD SVG 20010904//EN"
 "http://www.w3.org/TR/2001/REC-SVG-20010904/DTD/svg10.dtd">
<svg version="1.0" xmlns="http://www.w3.org/2000/svg"
 width="320.000000pt" height="320.000000pt" viewBox="0 0 320.000000 320.000000"
 preserveAspectRatio="xMidYMid meet">
<metadata>
Created by potrace 1.11, written by Peter Selinger 2001-2013
</metadata>
<g transform="translate(0.000000,320.000000) scale(0.100000,-0.100000)"
fill="#000000" stroke="none">
<path d="M1469 2996 c-2 -2 -30 -7 -63 -11 -32 -3 -99 -17 -150 -29 -458 -117
-824 -455 -980 -904 -19 -56 -35 -103 -34 -105 1 -1 -4 -24 -11 -52 -19 -82
-22 -113 -26 -265 -3 -163 5 -244 41 -383 99 -387 369 -719 731 -900 99 -50
260 -105 358 -123 167 -30 402 -27 549 6 351 78 634 260 846 545 105 140 206
367 239 535 6 30 13 69 17 85 10 48 13 327 4 376 -4 24 -10 62 -13 84 -7 49
-49 193 -76 263 -70 177 -182 343 -323 481 -178 172 -360 278 -597 347 -47 14
-104 27 -126 30 -22 3 -47 8 -55 11 -17 6 -325 14 -331 9z m311 -310 c14 -3
41 -9 60 -12 61 -12 200 -64 278 -106 303 -161 519 -467 570 -808 13 -86 6
-311 -11 -387 -50 -211 -140 -380 -284 -531 -139 -144 -300 -242 -487 -296
-115 -34 -166 -40 -306 -41 -159 0 -237 13 -371 61 -256 93 -473 281 -601 524
-42 79 -89 205 -102 275 -4 17 -9 41 -12 55 -13 58 -12 288 2 365 47 263 189
505 392 666 162 129 349 212 542 240 57 8 286 4 330 -5z"/>
</g>
</svg>
